<svg width="36" height="34" viewBox="0 0 36 34" fill="none" xmlns="http://www.w3.org/2000/svg">
<g clip-path="url(#clip0_18_4317)">
<path d="M17.399 0.0961976C17.0892 0.111802 16.7857 0.188607 16.5063 0.322107L4.32432 6.14278C4.00902 6.29335 3.73198 6.51245 3.51377 6.78379C3.29557 7.05513 3.1418 7.37175 3.0639 7.71012L0.0585261 20.7848C-0.0108723 21.0861 -0.018639 21.398 0.0356858 21.7023C0.0900107 22.0066 0.205323 22.297 0.374799 22.5563C0.415893 22.6196 0.460089 22.681 0.507229 22.7401L8.9391 33.2238C9.15735 33.4951 9.43442 33.7141 9.74973 33.8647C10.065 34.0152 10.4105 34.0933 10.7604 34.0932L24.2822 34.0901C24.632 34.0903 24.9774 34.0125 25.2927 33.8622C25.608 33.712 25.8851 33.4933 26.1035 33.2223L34.5323 22.737C34.7507 22.4656 34.9045 22.1488 34.9825 21.8103C35.0604 21.4718 35.0605 21.1202 34.9825 20.7817L31.9725 7.707C31.8946 7.36863 31.7408 7.05202 31.5226 6.78067C31.3044 6.50933 31.0274 6.29024 30.7121 6.13966L18.5286 0.322107C18.1771 0.154175 17.7887 0.0764957 17.399 0.0961976Z" fill="#326CE5"/>
<path d="M17.5198 4.54569C17.1171 4.54573 16.7906 4.90843 16.7906 5.35584C16.7906 5.36271 16.792 5.36927 16.7922 5.3761C16.7916 5.43689 16.7886 5.51013 16.7906 5.56306C16.8002 5.82111 16.8565 6.01861 16.8903 6.25636C16.9517 6.76523 17.0031 7.18704 16.9713 7.5791C16.9405 7.72695 16.8316 7.86215 16.7345 7.95614L16.7174 8.26462C16.2798 8.30087 15.8393 8.36726 15.3993 8.46716C13.5061 8.89703 11.876 9.87225 10.635 11.189C10.5545 11.134 10.4136 11.033 10.3717 11.002C10.2415 11.0196 10.1099 11.0598 9.93855 10.96C9.61225 10.7403 9.31506 10.4371 8.95546 10.0719C8.79069 9.89719 8.67136 9.73083 8.47559 9.56243C8.43114 9.52419 8.36329 9.47246 8.31356 9.43312C8.16051 9.31109 7.97999 9.24745 7.80566 9.24148C7.58151 9.23381 7.36573 9.32144 7.22453 9.49855C6.97349 9.81341 7.05386 10.2947 7.4037 10.5736C7.40725 10.5764 7.41103 10.5786 7.4146 10.5814C7.46267 10.6203 7.52154 10.6703 7.56573 10.7029C7.77347 10.8563 7.96324 10.9348 8.17023 11.0565C8.60632 11.3259 8.96784 11.5492 9.25459 11.8184C9.36657 11.9378 9.38614 12.1481 9.40104 12.2391L9.63474 12.4478C8.38369 14.3306 7.80469 16.6561 8.14686 19.0257L7.84149 19.1145C7.76101 19.2184 7.64728 19.382 7.52833 19.4308C7.15316 19.5489 6.73093 19.5923 6.22118 19.6458C5.98185 19.6657 5.77536 19.6538 5.52164 19.7019C5.4658 19.7124 5.38799 19.7327 5.32689 19.747C5.32476 19.7475 5.32278 19.7481 5.32066 19.7486C5.31732 19.7494 5.31295 19.751 5.30975 19.7517C4.87999 19.8556 4.6039 20.2506 4.69278 20.6398C4.78169 21.0291 5.20147 21.2658 5.63381 21.1726C5.63694 21.1719 5.64147 21.1718 5.64472 21.171C5.6496 21.1699 5.6539 21.1676 5.65874 21.1664C5.71901 21.1531 5.79454 21.1384 5.84726 21.1243C6.0967 21.0575 6.27736 20.9594 6.50162 20.8735C6.98407 20.7004 7.38365 20.5559 7.77294 20.4996C7.93553 20.4868 8.10683 20.5999 8.19204 20.6476L8.50987 20.593C9.24127 22.8606 10.774 24.6934 12.7149 25.8435L12.5825 26.1613C12.6302 26.2847 12.6828 26.4517 12.6473 26.5736C12.5058 26.9406 12.2634 27.3279 11.9873 27.7598C11.8537 27.9593 11.7169 28.1142 11.5963 28.3425C11.5674 28.3971 11.5306 28.4811 11.5028 28.5388C11.3154 28.9398 11.4528 29.4016 11.8128 29.5749C12.1751 29.7493 12.6247 29.5653 12.8193 29.1636C12.8196 29.163 12.8206 29.1626 12.8208 29.162C12.821 29.1616 12.8207 29.1609 12.8208 29.1604C12.8486 29.1035 12.8878 29.0286 12.9112 28.975C13.0145 28.7384 13.0489 28.5356 13.1215 28.3067C13.3145 27.8221 13.4205 27.3136 13.686 26.9968C13.7588 26.91 13.8773 26.8766 14.0002 26.8437L14.1654 26.5446C15.8574 27.194 17.7514 27.3683 19.6433 26.9387C20.0749 26.8408 20.4916 26.7139 20.8944 26.5617C20.9408 26.644 21.027 26.8023 21.0502 26.8422C21.1751 26.8828 21.3114 26.9038 21.4225 27.0681C21.6212 27.4075 21.7571 27.8091 21.9226 28.2942C21.9953 28.5231 22.0312 28.7259 22.1345 28.9626C22.1581 29.0165 22.1972 29.0925 22.2249 29.1495C22.4191 29.5526 22.8701 29.7372 23.2329 29.5624C23.5929 29.389 23.7305 28.9273 23.543 28.5263C23.5151 28.4686 23.4768 28.3847 23.4479 28.33C23.3273 28.1017 23.1905 27.9484 23.0569 27.7489C22.7808 27.3171 22.5518 26.9583 22.4103 26.5913C22.3511 26.402 22.4203 26.2843 22.4664 26.1613C22.4388 26.1297 22.3797 25.9509 22.3449 25.8668C24.3619 24.6759 25.8497 22.7747 26.5483 20.579C26.6427 20.5938 26.8067 20.6229 26.8599 20.6335C26.9696 20.5612 27.0704 20.4669 27.2681 20.4824C27.6574 20.5387 28.057 20.6833 28.5394 20.8563C28.7637 20.9422 28.9444 21.042 29.1938 21.1087C29.2465 21.1228 29.3221 21.136 29.3823 21.1492C29.3872 21.1504 29.3915 21.1528 29.3963 21.1539C29.3996 21.1546 29.4041 21.1548 29.4073 21.1555C29.8396 21.2485 30.2595 21.0119 30.3483 20.6226C30.4371 20.2334 30.1611 19.8383 29.7313 19.7346C29.6688 19.7204 29.5801 19.6962 29.5194 19.6847C29.2657 19.6367 29.0592 19.6485 28.8199 19.6286C28.3101 19.5752 27.8879 19.5318 27.5127 19.4136C27.3598 19.3543 27.2509 19.1723 27.198 19.0974L26.9036 19.0117C27.0562 17.9071 27.0151 16.7576 26.7509 15.6074C26.4842 14.4466 26.013 13.3848 25.3845 12.4494C25.46 12.3807 25.6027 12.2544 25.6431 12.2173C25.655 12.0864 25.6448 11.9493 25.7802 11.8044C26.067 11.5351 26.4285 11.3119 26.8646 11.0425C27.0716 10.9208 27.2629 10.8423 27.4707 10.6889C27.5176 10.6542 27.5818 10.5992 27.6311 10.5595C27.9809 10.2805 28.0614 9.79932 27.8103 9.48453C27.5592 9.16974 27.0726 9.14008 26.7228 9.41909C26.673 9.45852 26.6055 9.50996 26.5608 9.54841C26.365 9.71682 26.2441 9.88316 26.0794 10.0579C25.7198 10.4231 25.4226 10.7278 25.0963 10.9475C24.9549 11.0298 24.7478 11.0013 24.6538 10.9958L24.3765 11.1936C22.7951 9.53542 20.642 8.47524 18.3237 8.26929C18.3172 8.17214 18.3087 7.99652 18.3065 7.94367C18.2116 7.85285 18.097 7.77532 18.0682 7.5791C18.0365 7.18704 18.0894 6.76522 18.1507 6.25636C18.1846 6.01861 18.2409 5.82111 18.2505 5.56306C18.2526 5.50439 18.2491 5.41927 18.2489 5.35584C18.2489 4.90843 17.9224 4.54565 17.5198 4.54569ZM16.6068 10.2012L16.3902 14.0261L16.3746 14.0339C16.3601 14.3761 16.0785 14.6493 15.7327 14.6493C15.5911 14.6493 15.4604 14.6038 15.3541 14.5262L15.3479 14.5293L12.2117 12.3061C13.1756 11.3582 14.4085 10.6578 15.8293 10.3352C16.0889 10.2763 16.3483 10.2325 16.6068 10.2012ZM18.4343 10.2012C20.0932 10.4052 21.6273 11.1564 22.8029 12.3076L19.6869 14.5169L19.676 14.5122C19.3994 14.7142 19.0098 14.6641 18.7942 14.3938C18.7059 14.283 18.6596 14.1529 18.654 14.0214L18.6509 14.0199L18.4343 10.2012ZM11.0743 13.7347L13.9379 16.2961L13.9348 16.3117C14.1933 16.5364 14.2314 16.9263 14.0158 17.1966C13.9275 17.3073 13.8093 17.3816 13.6824 17.4163L13.6793 17.4287L10.0087 18.4882C9.82185 16.7799 10.2245 15.1192 11.0743 13.7347ZM23.9449 13.7363C24.3704 14.4259 24.6926 15.1962 24.8844 16.0312C25.0739 16.8563 25.1215 17.6798 25.0433 18.4757L21.354 17.4132L21.3509 17.3976C21.0205 17.3073 20.8175 16.9712 20.8944 16.6342C20.9259 16.4961 20.9992 16.3793 21.0985 16.293L21.0969 16.2852L23.9449 13.7363ZM16.9324 16.4939H18.1056L18.8347 17.4054L18.573 18.5427L17.5198 19.0491L16.4634 18.5412L16.2017 17.4038L16.9324 16.4939ZM20.6934 19.6131C20.7432 19.6105 20.7929 19.615 20.8414 19.624L20.8476 19.6162L24.6445 20.2581C24.0888 21.8192 23.0255 23.1716 21.6048 24.0767L20.131 20.5167L20.1356 20.5105C20.0002 20.1959 20.1357 19.827 20.4472 19.6769C20.527 19.6385 20.6103 19.6173 20.6934 19.6131ZM14.3165 19.6286C14.6063 19.6327 14.8662 19.8338 14.9335 20.1287C14.965 20.2668 14.9497 20.4036 14.8977 20.5245L14.9086 20.5385L13.4503 24.0627C12.0869 23.1878 11.0009 21.8778 10.42 20.2705L14.1841 19.6318L14.1903 19.6395C14.2324 19.6318 14.2751 19.6281 14.3165 19.6286ZM17.4964 21.1726C17.5973 21.1689 17.6997 21.1896 17.7971 21.2365C17.9247 21.2979 18.0233 21.3947 18.0853 21.5107H18.0993L19.9549 24.8635C19.7141 24.9442 19.4665 25.0132 19.2133 25.0707C17.7942 25.3929 16.3796 25.2953 15.0986 24.8588L16.9495 21.5122H16.9526C17.0637 21.3046 17.2743 21.1808 17.4964 21.1726Z" fill="white"/>
</g>
<defs>
<clipPath id="clip0_18_4317">
<rect width="35.041" height="34" fill="white"/>
</clipPath>
</defs>
</svg>
