<svg width="35" height="34" viewBox="0 0 35 34" fill="none" xmlns="http://www.w3.org/2000/svg">
<g clip-path="url(#clip0_10_2800)">
<path d="M7.94858 21.4173C7.94858 23.3716 6.36905 24.9512 4.41472 24.9512C2.46039 24.9512 0.880859 23.3716 0.880859 21.4173C0.880859 19.463 2.46039 17.8835 4.41472 17.8835H7.94858V21.4173ZM9.7155 21.4173C9.7155 19.463 11.295 17.8835 13.2494 17.8835C15.2037 17.8835 16.7832 19.463 16.7832 21.4173V30.252C16.7832 32.2063 15.2037 33.7858 13.2494 33.7858C11.295 33.7858 9.7155 32.2063 9.7155 30.252V21.4173Z" fill="#E01E5A"/>
<path d="M13.2495 7.22836C11.2952 7.22836 9.71567 5.64883 9.71567 3.6945C9.71567 1.74017 11.2952 0.160645 13.2495 0.160645C15.2039 0.160645 16.7834 1.74017 16.7834 3.6945V7.22836H13.2495ZM13.2495 9.02206C15.2039 9.02206 16.7834 10.6016 16.7834 12.5559C16.7834 14.5103 15.2039 16.0898 13.2495 16.0898H4.38811C2.43378 16.0898 0.854248 14.5103 0.854248 12.5559C0.854248 10.6016 2.43378 9.02206 4.38811 9.02206H13.2495Z" fill="#36C5F0"/>
<path d="M27.4115 12.5559C27.4115 10.6016 28.9911 9.02206 30.9454 9.02206C32.8997 9.02206 34.4793 10.6016 34.4793 12.5559C34.4793 14.5103 32.8997 16.0898 30.9454 16.0898H27.4115V12.5559ZM25.6446 12.5559C25.6446 14.5103 24.0651 16.0898 22.1108 16.0898C20.1564 16.0898 18.5769 14.5103 18.5769 12.5559V3.6945C18.5769 1.74017 20.1564 0.160645 22.1108 0.160645C24.0651 0.160645 25.6446 1.74017 25.6446 3.6945V12.5559Z" fill="#2EB67D"/>
<path d="M22.1108 26.7181C24.0651 26.7181 25.6446 28.2976 25.6446 30.252C25.6446 32.2063 24.0651 33.7858 22.1108 33.7858C20.1564 33.7858 18.5769 32.2063 18.5769 30.252V26.7181H22.1108ZM22.1108 24.9512C20.1564 24.9512 18.5769 23.3716 18.5769 21.4173C18.5769 19.463 20.1564 17.8835 22.1108 17.8835H30.9722C32.9265 17.8835 34.506 19.463 34.506 21.4173C34.506 23.3716 32.9265 24.9512 30.9722 24.9512H22.1108Z" fill="#ECB22E"/>
</g>
<defs>
<clipPath id="clip0_10_2800">
<rect width="34" height="34" fill="white" transform="translate(0.666748)"/>
</clipPath>
</defs>
</svg>
