<svg width="34" height="34" viewBox="0 0 34 34" fill="none" xmlns="http://www.w3.org/2000/svg">
<path d="M26.9592 5.04334C24.5934 3.07417 21.6609 1.785 18.4167 1.4875V4.335C20.8675 4.60417 23.1059 5.58167 24.9475 7.055L26.9592 5.04334ZM15.5834 4.335V1.4875C12.3392 1.77084 9.40671 3.07417 7.04088 5.04334L9.05255 7.055C10.8942 5.58167 13.1325 4.60417 15.5834 4.335ZM7.05505 9.0525L5.04338 7.04084C3.07422 9.40667 1.78505 12.3392 1.48755 15.5833H4.33505C4.60422 13.1325 5.58172 10.8942 7.05505 9.0525ZM29.6651 15.5833H32.5126C32.215 12.3392 30.9259 9.40667 28.9567 7.04084L26.945 9.0525C28.4184 10.8942 29.3959 13.1325 29.6651 15.5833ZM9.91671 17L14.79 19.21L17 24.0833L19.21 19.21L24.0834 17L19.21 14.79L17 9.91667L14.79 14.79L9.91671 17Z" fill="#F9A03C"/>
<path d="M17.0001 29.75C12.5942 29.75 8.71258 27.4975 6.43175 24.0833H9.91675V21.25H1.41675V29.75H4.25008V25.925C7.06925 29.9483 11.7159 32.5833 17.0001 32.5833C23.8993 32.5833 29.7501 28.0925 31.7901 21.8733L29.0134 21.2358C27.2709 26.18 22.5534 29.75 17.0001 29.75Z" fill="#F9A03C"/>
</svg>
