<svg width="34" height="34" viewBox="0 0 34 34" fill="none" xmlns="http://www.w3.org/2000/svg">
<path fill-rule="evenodd" clip-rule="evenodd" d="M31.5011 13.94C32.2576 11.6535 31.9941 9.1545 30.7786 7.072C28.9511 3.8845 25.2706 2.244 21.6751 3.0175C19.6521 0.765 16.5751 -0.238001 13.6171 0.390999C10.6591 1.02 8.25358 3.179 7.31008 6.052C4.94708 6.5365 2.91558 8.0155 1.71708 10.1065C-0.135918 13.2855 0.289082 17.2975 2.75408 20.026C1.98908 22.3125 2.25258 24.8115 3.46808 26.894C5.30408 30.0815 8.98458 31.722 12.5801 30.9485C14.1781 32.7505 16.4731 33.7705 18.8871 33.762C22.5676 33.762 25.8316 31.3905 26.9536 27.88C29.3166 27.3955 31.3481 25.9165 32.5466 23.8255C34.3741 20.655 33.9491 16.66 31.5011 13.94ZM18.8871 31.569C17.4166 31.569 15.9971 31.059 14.8666 30.1155L15.0621 30.005L21.7431 26.146C22.0831 25.9505 22.2871 25.585 22.2956 25.194V15.7675L25.1176 17.3995C25.1431 17.4165 25.1686 17.442 25.1686 17.476V25.279C25.1601 28.7555 22.3551 31.5605 18.8871 31.569ZM5.38058 25.7975C4.64108 24.5225 4.37758 23.035 4.63258 21.5815L4.82808 21.7005L11.5176 25.5595C11.8576 25.755 12.2741 25.755 12.6056 25.5595L20.7741 20.8505V24.1145C20.7741 24.1485 20.7571 24.1825 20.7316 24.1995L13.9656 28.101C10.9566 29.835 7.11458 28.8065 5.38058 25.7975ZM3.61258 11.2455C4.35208 9.962 5.52508 8.9845 6.91908 8.483V16.422C6.91058 16.813 7.12308 17.1785 7.46308 17.3655L15.5891 22.0575L12.7671 23.6895C12.7331 23.7065 12.6991 23.7065 12.6651 23.6895L5.90758 19.7965C2.90708 18.054 1.87858 14.2205 3.60408 11.2115V11.2455H3.61258ZM26.8261 16.6345L18.6661 11.9L21.4881 10.2765C21.5221 10.2595 21.5561 10.2595 21.5901 10.2765L28.3476 14.178C30.4556 15.3935 31.6711 17.7225 31.4671 20.145C31.2631 22.5675 29.6821 24.6585 27.3956 25.5085V17.5695C27.3786 17.1785 27.1661 16.83 26.8261 16.6345ZM29.6311 12.41L29.4356 12.291L22.7631 8.398C22.4231 8.2025 22.0066 8.2025 21.6666 8.398L13.5066 13.107V9.843C13.5066 9.809 13.5151 9.775 13.5491 9.758L20.3066 5.865C22.4231 4.6495 25.0496 4.76 27.0471 6.154C29.0446 7.548 30.0646 9.979 29.6481 12.376V12.41H29.6311ZM11.9596 18.19L9.13758 16.5665C9.11208 16.5495 9.08658 16.524 9.08658 16.49V8.704C9.08658 6.2645 10.4976 4.046 12.7076 3.0175C14.9176 1.9805 17.5186 2.3205 19.3971 3.876L19.2016 3.9865L12.5206 7.8455C12.1806 8.041 11.9766 8.4065 11.9681 8.7975L11.9596 18.19ZM13.4896 14.8835L17.1276 12.784L20.7741 14.8835V19.074L17.1446 21.1735L13.4981 19.074L13.4896 14.8835Z" fill="#348B6B"/>
</svg>
