<svg width="21" height="34" viewBox="0 0 21 34" fill="none" xmlns="http://www.w3.org/2000/svg">
<path d="M20.6985 25.7342V28.0605C20.6985 29.5906 19.7033 31.1083 17.7004 32.2653C13.6822 34.6041 7.15102 34.6041 3.10793 32.2653C1.06772 31.0835 0.0600586 29.5409 0.0600586 28.0107V25.672C0.0600586 27.2145 1.06772 28.7571 3.10793 29.9265C7.15102 32.2653 13.6822 32.2653 17.7004 29.9265C19.7033 28.7696 20.6985 27.2519 20.6985 25.7342Z" fill="#D4E2FC"/>
<path d="M20.6984 25.7341V28.0605C20.6984 29.5906 19.7032 31.1083 17.7003 32.2653C16.9166 32.7256 16.0209 33.0863 15.0754 33.3725V31.0337C16.0209 30.76 16.9166 30.3868 17.7003 29.9265C19.7032 28.7696 20.6984 27.2518 20.6984 25.7341Z" fill="#BECEF9"/>
<path d="M15.0755 31.0337V33.3725C13.6822 33.783 12.1769 33.9945 10.6467 34.0194V31.6806C12.1769 31.6557 13.6822 31.4442 15.0755 31.0337Z" fill="#CDDCFB"/>
<path d="M10.6467 31.6806V34.0193C7.93472 34.0442 5.18542 33.4595 3.10789 32.2653C3.00837 32.2072 2.90885 32.145 2.80933 32.0786V29.7523C2.90885 29.8104 3.00837 29.8684 3.10789 29.9265C5.18542 31.1332 7.93472 31.7179 10.6467 31.6806Z" fill="#DAE8FD"/>
<path d="M2.80952 29.7523V32.0786C1.72722 31.4069 0.968358 30.6231 0.520508 29.7896V27.4633C0.968358 28.2844 1.72722 29.0805 2.80952 29.7523Z" fill="#CDDCFB"/>
<path d="M0.520349 27.4633V29.7897C0.209342 29.2174 0.0600586 28.6079 0.0600586 28.0107V25.672C0.0600586 26.2815 0.209342 26.8787 0.520349 27.4633Z" fill="#CDDCFB"/>
<path d="M17.6507 21.4796C21.7062 23.8059 21.7187 27.6002 17.7004 29.9265C13.6822 32.2653 7.15108 32.2653 3.10799 29.9265C-0.935099 27.6002 -0.95998 23.8059 3.05823 21.4796C7.07644 19.1408 13.6076 19.1408 17.6507 21.4796Z" fill="#E6F1FE"/>
<path d="M20.4123 21.691V25.0623C20.3999 26.5427 19.4295 28.0107 17.4889 29.1427C13.5826 31.4193 7.22565 31.4193 3.29452 29.1427C1.31652 27.9982 0.33374 26.5054 0.33374 25.0001L0.34618 21.6413C0.34618 23.1341 1.32896 24.6394 3.30696 25.7839C7.23809 28.048 13.5951 28.048 17.5013 25.7839C19.442 24.6518 20.4123 23.1714 20.4123 21.691Z" fill="#1499FC"/>
<path d="M20.4124 21.691V25.0623C20.4 26.5427 19.4297 28.0107 17.489 29.1428C16.7177 29.5906 15.8593 29.9514 14.9387 30.2251L14.9512 26.8537C15.8717 26.5801 16.7301 26.2193 17.5014 25.7839C19.4421 24.6518 20.4124 23.1714 20.4124 21.691Z" fill="#1499FC"/>
<path d="M14.9511 26.8537L14.9386 30.225C13.5826 30.6231 12.1147 30.8222 10.6343 30.8471V27.4757C12.1271 27.4633 13.5951 27.2518 14.9511 26.8537Z" fill="#0097FE"/>
<path d="M10.6344 27.4758V30.8471C7.98466 30.8844 5.32244 30.3121 3.29467 29.1427C3.19515 29.0847 3.09977 29.0266 3.00854 28.9686L3.02099 25.6097C3.11221 25.6678 3.20759 25.7258 3.30711 25.7839C5.33488 26.9408 7.9971 27.5131 10.6344 27.4758Z" fill="#0097FE"/>
<path d="M3.021 25.6097L3.00856 28.9686C1.96357 28.3093 1.21716 27.5504 0.794189 26.7418V23.3705C1.2296 24.1791 1.97602 24.9504 3.021 25.6097Z" fill="#0097FE"/>
<path d="M0.79403 23.3705V26.7418C0.483024 26.182 0.33374 25.5848 0.33374 25.0001L0.34618 21.6413C0.34618 22.226 0.495464 22.8107 0.79403 23.3705Z" fill="#0097FE"/>
<path d="M17.4516 17.5609C21.3827 19.825 21.4076 23.5073 17.5013 25.7839C13.5951 28.048 7.23811 28.048 3.30698 25.7839C-0.624147 23.5073 -0.649028 19.825 3.25722 17.5609C7.16347 15.2843 13.5204 15.2843 17.4516 17.5609Z" fill="#15D9FD"/>
<path d="M20.6985 19.203V21.5293C20.6985 23.0471 19.7033 24.5648 17.7004 25.7342C13.6822 28.0605 7.15102 28.0605 3.10793 25.7342C1.06772 24.5523 0.0600586 23.0097 0.0600586 21.4671V19.1408C0.0600586 20.6834 1.06772 22.226 3.10793 23.3954C7.15102 25.7342 13.6822 25.7342 17.7004 23.3954C19.7033 22.2384 20.6985 20.7207 20.6985 19.203Z" fill="#D4E2FC"/>
<path d="M20.6984 19.203V21.5293C20.6984 23.047 19.7032 24.5647 17.7003 25.7341C16.9166 26.1944 16.0209 26.5552 15.0754 26.8413V24.5025C16.0209 24.2289 16.9166 23.8557 17.7003 23.3954C19.7032 22.2384 20.6984 20.7207 20.6984 19.203Z" fill="#BECEF9"/>
<path d="M15.0755 24.5025V26.8413C13.6822 27.2394 12.1769 27.4633 10.6467 27.4758V25.1494C12.1769 25.1246 13.6822 24.9131 15.0755 24.5025Z" fill="#CDDCFB"/>
<path d="M10.6467 25.1495V27.4758C7.93472 27.5131 5.18542 26.9284 3.10789 25.7342C3.00837 25.6761 2.90885 25.6139 2.80933 25.5476V23.2212C2.90885 23.2793 3.00837 23.3373 3.10789 23.3954C5.18542 24.6021 7.93472 25.1868 10.6467 25.1495Z" fill="#DAE8FD"/>
<path d="M2.80952 23.2212V25.5475C1.72722 24.8758 0.968358 24.092 0.520508 23.2585V20.9322C0.968358 21.7532 1.72722 22.537 2.80952 23.2212Z" fill="#CDDCFB"/>
<path d="M0.520349 20.9322V23.2585C0.209342 22.6738 0.0600586 22.0767 0.0600586 21.4671V19.1408C0.0600586 19.7379 0.209342 20.3475 0.520349 20.9322Z" fill="#CDDCFB"/>
<path d="M17.6507 14.936C21.7062 17.2747 21.7187 21.0566 17.7004 23.3954C13.6822 25.7341 7.15108 25.7341 3.10799 23.3954C-0.935099 21.0566 -0.95998 17.2747 3.05823 14.936C7.07644 12.6096 13.6076 12.6096 17.6507 14.936Z" fill="#E6F1FE"/>
<path d="M20.4123 15.1848V18.5437C20.3999 20.0241 19.4295 21.5044 17.4889 22.6365C13.5826 24.9006 7.22565 24.9006 3.29452 22.6365C1.31652 21.492 0.33374 19.9867 0.33374 18.4939L0.34618 15.1226C0.34618 16.6279 1.32896 18.1207 3.30696 19.2652C7.23809 21.5293 13.5951 21.5293 17.5013 19.2652C19.442 18.1331 20.4123 16.6652 20.4123 15.1848Z" fill="#1499FC"/>
<path d="M20.4124 15.1848V18.5437C20.4 20.024 19.4297 21.5044 17.489 22.6365C16.7177 23.0844 15.8593 23.4327 14.9387 23.7064L14.9512 20.3475C15.8717 20.0738 16.7301 19.713 17.5014 19.2652C19.4421 18.1331 20.4124 16.6652 20.4124 15.1848Z" fill="#1499FC"/>
<path d="M14.9511 20.3475L14.9386 23.7064C13.5826 24.1045 12.1147 24.316 10.6343 24.3284V20.9695C12.1271 20.9447 13.5951 20.7332 14.9511 20.3475Z" fill="#0097FE"/>
<path d="M10.6344 20.9695V24.3284C7.98466 24.3657 5.32244 23.8059 3.29467 22.6365C3.19515 22.5784 3.09977 22.5204 3.00854 22.4623L3.02099 19.091C3.11221 19.1491 3.20759 19.2071 3.30711 19.2652C5.33488 20.4346 7.9971 21.0068 10.6344 20.9695Z" fill="#0097FE"/>
<path d="M3.021 19.091L3.00856 22.4623C1.96357 21.803 1.21716 21.0317 0.794189 20.2355V16.8642C1.2296 17.6728 1.97602 18.4317 3.021 19.091Z" fill="#0097FE"/>
<path d="M0.79403 16.8642V20.2355C0.483024 19.6633 0.33374 19.0786 0.33374 18.4939L0.34618 15.1226C0.34618 15.7073 0.495464 16.3044 0.79403 16.8642Z" fill="#0097FE"/>
<path d="M17.4516 11.0422C21.3827 13.3188 21.4076 17.0011 17.5013 19.2652C13.5951 21.5293 7.23811 21.5293 3.30698 19.2652C-0.624147 17.0011 -0.649028 13.3188 3.25722 11.0422C7.16347 8.77805 13.5204 8.77805 17.4516 11.0422Z" fill="#15D9FD"/>
<path d="M20.6985 12.6843V15.0231C20.6985 16.5408 19.7033 18.0585 17.7004 19.2154C13.6822 21.5542 7.15102 21.5542 3.10793 19.2154C1.06772 18.0461 0.0600586 16.5035 0.0600586 14.9609V12.6221C0.0600586 14.1647 1.06772 15.7073 3.10793 16.8891C7.15102 19.2154 13.6822 19.2154 17.7004 16.8891C19.7033 15.7197 20.6985 14.202 20.6985 12.6843Z" fill="#D4E2FC"/>
<path d="M20.6984 12.6843V15.0231C20.6984 16.5408 19.7032 18.0585 17.7003 19.2154C16.9166 19.6757 16.0209 20.0489 15.0754 20.3226V17.9963C16.0209 17.7102 16.9166 17.337 17.7003 16.8891C19.7032 15.7197 20.6984 14.202 20.6984 12.6843Z" fill="#BECEF9"/>
<path d="M15.0755 17.9963V20.3226C13.6822 20.7331 12.1769 20.9446 10.6467 20.9695V18.6307C12.1769 18.6183 13.6822 18.3944 15.0755 17.9963Z" fill="#CDDCFB"/>
<path d="M10.6467 18.6307V20.9695C7.93472 21.0068 5.18542 20.4221 3.10789 19.2154C3.00837 19.1574 2.90885 19.0993 2.80933 19.0413V16.7025C2.90885 16.7606 3.00837 16.8228 3.10789 16.8891C5.18542 18.0834 7.93472 18.6681 10.6467 18.6307Z" fill="#DAE8FD"/>
<path d="M2.80952 16.7025V19.0413C1.72722 18.3571 0.968358 17.5733 0.520508 16.7523V14.4135C0.968358 15.247 1.72722 16.0307 2.80952 16.7025Z" fill="#CDDCFB"/>
<path d="M0.520349 14.4135V16.7523C0.209342 16.1676 0.0600586 15.558 0.0600586 14.9609V12.6221C0.0600586 13.2317 0.209342 13.8288 0.520349 14.4135Z" fill="#CDDCFB"/>
<path d="M17.6507 8.42971C21.7062 10.7685 21.7187 14.5503 17.7004 16.8891C13.6822 19.2154 7.15108 19.2154 3.10799 16.8891C-0.935099 14.5503 -0.95998 10.7685 3.05823 8.42971C7.07644 6.09094 13.6076 6.09094 17.6507 8.42971Z" fill="#E6F1FE"/>
<path d="M20.4123 8.52923V11.9005C20.3999 13.3685 19.4295 14.8489 17.4889 15.9809C13.5826 18.2451 7.22565 18.2451 3.29452 15.9809C1.31652 14.8364 0.33374 13.3312 0.33374 11.8383L0.34618 8.46703C0.34618 9.9723 1.32896 11.4651 3.30696 12.6096C7.23809 14.8862 13.5951 14.8862 17.5013 12.6096C19.442 11.4776 20.4123 10.0096 20.4123 8.52923Z" fill="#1499FC"/>
<path d="M20.4124 8.52924V11.9005C20.4 13.3685 19.4297 14.8489 17.489 15.981C16.7177 16.4288 15.8593 16.7896 14.9387 17.0508L14.9512 13.6919C15.8717 13.4183 16.7301 13.0575 17.5014 12.6096C19.4421 11.4776 20.4124 10.0096 20.4124 8.52924Z" fill="#1499FC"/>
<path d="M14.9511 13.692L14.9386 17.0508C13.5826 17.4489 12.1147 17.6604 10.6343 17.6728V14.314C12.1271 14.2891 13.5951 14.09 14.9511 13.692Z" fill="#0097FE"/>
<path d="M10.6344 14.3139V17.6728C7.98466 17.7101 5.32244 17.1503 3.29467 15.9809C3.19515 15.9229 3.09977 15.8648 3.00854 15.8068L3.02099 12.4355C3.11221 12.4935 3.20759 12.5516 3.30711 12.6096C5.33488 13.779 7.9971 14.3513 10.6344 14.3139Z" fill="#0097FE"/>
<path d="M3.021 12.4355L3.00856 15.8068C1.96357 15.1475 1.21716 14.3886 0.794189 13.58V10.2087C1.2296 11.0173 1.97602 11.7762 3.021 12.4355Z" fill="#0097FE"/>
<path d="M0.79403 10.2087V13.58C0.483024 13.0077 0.33374 12.423 0.33374 11.8383L0.34618 8.46703C0.34618 9.06416 0.495464 9.64885 0.79403 10.2087Z" fill="#0097FE"/>
<path d="M17.4516 4.38664C21.3827 6.66321 21.4076 10.3455 17.5013 12.6097C13.5951 14.8862 7.23811 14.8862 3.30698 12.6097C-0.624147 10.3455 -0.649028 6.66321 3.25722 4.38664C7.16347 2.12251 13.5204 2.12251 17.4516 4.38664Z" fill="#15D9FD"/>
<path d="M20.6985 6.02875V8.36752C20.6985 9.88524 19.7033 11.403 17.7004 12.5599C13.6822 14.8987 7.15102 14.8987 3.10793 12.5599C1.06772 11.3905 0.0600586 9.84792 0.0600586 8.30532V5.96655C0.0600586 7.50915 1.06772 9.05174 3.10793 10.2336C7.15102 12.5599 13.6822 12.5599 17.7004 10.2336C19.7033 9.06418 20.6985 7.54647 20.6985 6.02875Z" fill="#D4E2FC"/>
<path d="M20.6984 6.02875V8.36752C20.6984 9.88523 19.7032 11.4029 17.7003 12.5599C16.9166 13.0202 16.0209 13.3934 15.0754 13.6671V11.3407C16.0209 11.0546 16.9166 10.6939 17.7003 10.2336C19.7032 9.06417 20.6984 7.54646 20.6984 6.02875Z" fill="#BECEF9"/>
<path d="M15.0755 11.3407V13.6671C13.6822 14.0776 12.1769 14.2891 10.6467 14.314V11.9752C12.1769 11.9628 13.6822 11.7513 15.0755 11.3407Z" fill="#CDDCFB"/>
<path d="M10.6467 11.9752V14.314C7.93472 14.3513 5.18542 13.7666 3.10789 12.5599C3.00837 12.5018 2.90885 12.4438 2.80933 12.3857V10.047C2.90885 10.1133 3.00837 10.1755 3.10789 10.2336C5.18542 11.4278 7.93472 12.0125 10.6467 11.9752Z" fill="#DAE8FD"/>
<path d="M2.80952 10.047V12.3857C1.72722 11.7015 0.968358 10.9178 0.520508 10.0967V7.75795C0.968358 8.59145 1.72722 9.37519 2.80952 10.047Z" fill="#CDDCFB"/>
<path d="M0.520349 7.75795V10.0967C0.209342 9.51203 0.0600586 8.90246 0.0600586 8.30532V5.96655C0.0600586 6.57613 0.209342 7.17326 0.520349 7.75795Z" fill="#CDDCFB"/>
<path d="M17.6507 1.77417C21.7062 4.11294 21.7187 7.89478 17.7004 10.2336C13.6822 12.5599 7.15108 12.5599 3.10799 10.2336C-0.935099 7.89478 -0.95998 4.11294 3.05823 1.77417C7.07644 -0.564597 13.6076 -0.564597 17.6507 1.77417Z" fill="#E6F1FE"/>
<path d="M16.7425 2.75696C20.2755 4.54836 20.3004 7.45939 16.7798 9.25079C13.2716 11.0422 7.56156 11.0422 4.01608 9.25079C0.483037 7.45939 0.470596 4.54836 3.97876 2.75696C7.48692 0.965556 13.2094 0.965556 16.7425 2.75696Z" fill="#DAE8FD"/>
<path fill-rule="evenodd" clip-rule="evenodd" d="M19.6659 6.01631C19.6659 6.07436 19.6617 6.13242 19.6534 6.19047C19.5788 7.32254 18.6831 8.4546 17.1778 9.32542C15.4237 10.358 12.9481 10.9427 10.4103 10.9427C7.83517 10.9427 5.4342 10.3704 3.63036 9.32542C2.1002 8.44216 1.19206 7.29766 1.10498 6.15315C1.10498 6.0951 1.10498 6.03704 1.10498 5.97899C1.10498 4.79716 2.00068 3.59046 3.58059 2.66987C5.34711 1.64977 7.81029 1.06508 10.3481 1.06508C12.9232 1.06508 15.3367 1.63733 17.1405 2.68231C18.7328 3.6029 19.6659 4.82204 19.6659 6.01631ZM18.8572 6.19047C18.8572 6.13242 18.8572 6.07436 18.8572 6.01631C18.8572 5.12061 18.086 4.15027 16.73 3.36653C15.0505 2.39619 12.7864 1.86126 10.3481 1.86126C7.94713 1.86126 5.63324 2.40863 3.99112 3.36653C2.66001 4.13783 1.90116 5.09573 1.90116 5.97899C1.90116 6.04119 1.90116 6.10339 1.9136 6.16559C1.9053 6.22365 1.90116 6.27755 1.90116 6.32732C1.90116 7.23546 2.6849 8.2058 4.02844 8.9771C5.70788 9.94744 7.97201 10.4824 10.4103 10.4824C12.8113 10.4824 15.1376 9.935 16.7797 8.98954C18.0984 8.21824 18.8572 7.26034 18.8572 6.36464C18.8572 6.31488 18.8572 6.24023 18.8572 6.19047Z" fill="#98A4E0"/>
<path fill-rule="evenodd" clip-rule="evenodd" d="M19.6534 6.19047C19.5788 7.32253 18.6831 8.45459 17.1778 9.32541C15.4237 10.358 12.9481 10.9426 10.4103 10.9426C7.83516 10.9426 5.43419 10.3704 3.63035 9.32541C2.1002 8.44215 1.19206 7.29765 1.10498 6.15315C1.19206 5.03352 2.07532 3.88902 3.58059 3.0182C5.34711 1.9981 7.81028 1.41341 10.3481 1.41341C12.9232 1.41341 15.3366 1.98566 17.1405 3.0182C18.6582 3.90146 19.5663 5.04596 19.6534 6.19047ZM18.8572 6.36463C18.8572 6.31487 18.8572 6.24023 18.8572 6.19047C18.8572 6.13241 18.8572 6.07436 18.8572 6.0163C18.8572 5.1206 18.0859 4.15026 16.73 3.36653C15.0505 2.39619 12.7864 1.86126 10.3481 1.86126C7.94713 1.86126 5.63324 2.40863 3.99112 3.36653C2.66001 4.13782 1.90116 5.09572 1.90116 5.97898C1.90116 6.04118 1.90116 6.10338 1.9136 6.16559C1.9053 6.22364 1.90116 6.27755 1.90116 6.32731C1.90116 7.23545 2.68489 8.20579 4.02844 8.97708C5.70788 9.94742 7.97201 10.4824 10.4103 10.4824C12.8113 10.4824 15.1376 9.93498 16.7797 8.98952C18.0984 8.21823 18.8572 7.26033 18.8572 6.36463Z" fill="#0097FE"/>
</svg>
