<svg width="36" height="34" viewBox="0 0 36 34" fill="none" xmlns="http://www.w3.org/2000/svg">
<path d="M35.8799 24.7249C35.896 24.5686 35.9072 24.4109 35.9164 24.2524C35.9269 24.0645 24.6167 13.3334 24.6167 13.3334H24.3461C24.3461 13.3334 35.8105 25.4253 35.8799 24.7249Z" fill="url(#paint0_linear_18_4323)"/>
<path d="M11.7487 21.0023C11.7333 21.0353 11.7186 21.0682 11.7031 21.1012C11.687 21.1355 11.6709 21.1699 11.6541 21.2042C11.2937 21.9558 16.7017 27.2425 17.1364 26.6003C17.1567 26.5722 17.1763 26.5421 17.1959 26.5133C17.2184 26.4797 17.2401 26.4474 17.2618 26.4138C17.6096 25.8859 11.9029 20.6588 11.7487 21.0023Z" fill="url(#paint1_linear_18_4323)"/>
<path d="M19.3903 28.437C19.3749 28.4707 19.2662 28.6544 19.1667 28.7518C19.1498 28.7855 24.4463 34.0378 24.4463 34.0378H24.9231C24.9238 34.0378 19.9519 28.6593 19.3903 28.437Z" fill="url(#paint2_linear_18_4323)"/>
<path d="M35.9234 24.1571C35.6759 29.6478 31.1337 34.0378 25.5841 34.0378H24.834L19.2914 28.578C19.7471 27.9351 20.1712 27.2691 20.5484 26.5743H25.5841C27.1762 26.5743 28.4725 25.2788 28.4725 23.686C28.4725 22.0932 27.1762 20.7969 25.5841 20.7969H22.6039C22.8311 19.5967 22.9552 18.3593 22.9552 17.0932C22.9552 15.8075 22.829 14.5526 22.5934 13.3334H24.4449L35.8911 24.6114C35.9044 24.4606 35.9156 24.3092 35.9234 24.1571ZM3.05207 0.0932007H0.0410156V7.55668H3.05207C8.31072 7.55668 12.5893 11.8345 12.5893 17.0932C12.5893 18.5241 12.2703 19.882 11.7031 21.1012L17.1959 26.5133C18.9998 23.815 20.0542 20.5754 20.0542 17.0932C20.0542 7.71933 12.4266 0.0932007 3.05207 0.0932007Z" fill="url(#paint3_linear_18_4323)"/>
<path d="M25.5842 0.0932007H13.3914C16.3695 1.91105 18.8358 4.48955 20.5155 7.55668H25.5842C27.1763 7.55668 28.4726 8.85224 28.4726 10.4451C28.4726 12.0386 27.1763 13.3334 25.5842 13.3334H24.445L35.8919 24.6121C35.9185 24.3064 35.9353 23.9986 35.9353 23.686C35.9353 21.1699 35.0324 18.8613 33.5335 17.0652C35.0324 15.2697 35.9353 12.9612 35.9353 10.4451C35.9353 4.73702 31.2922 0.0932007 25.5842 0.0932007Z" fill="url(#paint4_linear_18_4323)"/>
<path d="M24.834 34.0378H13.4789C15.7644 32.6266 17.74 30.7632 19.2914 28.578L24.834 34.0378ZM17.1959 26.5133L11.7038 21.1012C10.1861 24.3625 6.87985 26.6304 3.05207 26.6304H0.0410156V34.0932H3.05207C8.94448 34.0932 14.1449 31.0793 17.1959 26.5133Z" fill="url(#paint5_linear_18_4323)"/>
<defs>
<linearGradient id="paint0_linear_18_4323" x1="14.9343" y1="12.5062" x2="36.2031" y2="35.4918" gradientUnits="userSpaceOnUse">
<stop stop-color="#F9A03C"/>
<stop offset="1" stop-color="#F7974E"/>
</linearGradient>
<linearGradient id="paint1_linear_18_4323" x1="-3.01491" y1="21.1068" x2="17.1917" y2="40.7161" gradientUnits="userSpaceOnUse">
<stop stop-color="#F9A03C"/>
<stop offset="1" stop-color="#F7974E"/>
</linearGradient>
<linearGradient id="paint2_linear_18_4323" x1="6.60367" y1="28.1026" x2="24.2963" y2="48.9501" gradientUnits="userSpaceOnUse">
<stop stop-color="#F9A03C"/>
<stop offset="1" stop-color="#F7974E"/>
</linearGradient>
<linearGradient id="paint3_linear_18_4323" x1="4.9933" y1="2.13959" x2="28.7543" y2="35.2906" gradientUnits="userSpaceOnUse">
<stop stop-color="#F26D58"/>
<stop offset="1" stop-color="#F9A03C"/>
</linearGradient>
<linearGradient id="paint4_linear_18_4323" x1="16.3877" y1="7.81678" x2="41.0461" y2="22.7164" gradientUnits="userSpaceOnUse">
<stop stop-color="#B84E51"/>
<stop offset="1" stop-color="#F68E48"/>
</linearGradient>
<linearGradient id="paint5_linear_18_4323" x1="12.1287" y1="14.9353" x2="12.4631" y2="31.0541" gradientUnits="userSpaceOnUse">
<stop stop-color="#F9A03C"/>
<stop offset="1" stop-color="#F7974E"/>
</linearGradient>
</defs>
</svg>
