<svg width="34" height="34" viewBox="0 0 34 34" fill="none" xmlns="http://www.w3.org/2000/svg">
<path d="M8.50008 15.5833C12.4101 15.5833 15.5834 12.41 15.5834 8.5C15.5834 4.59 12.4101 1.41667 8.50008 1.41667C4.59008 1.41667 1.41675 4.59 1.41675 8.5C1.41675 12.41 4.59008 15.5833 8.50008 15.5833ZM8.50008 4.25001C10.8376 4.25001 12.7501 6.16251 12.7501 8.5C12.7501 10.8375 10.8376 12.75 8.50008 12.75C6.16258 12.75 4.25008 10.8375 4.25008 8.5C4.25008 6.16251 6.16258 4.25001 8.50008 4.25001ZM29.7501 19.8333H22.6667C21.1084 19.8333 19.8334 21.1083 19.8334 22.6667V29.75C19.8334 31.3083 21.1084 32.5833 22.6667 32.5833H29.7501C31.3084 32.5833 32.5834 31.3083 32.5834 29.75V22.6667C32.5834 21.1083 31.3084 19.8333 29.7501 19.8333ZM29.7501 29.75H22.6667V22.6667H29.7501V29.75Z" fill="#E01E5A"/>
<path d="M25.0891 10.9083C25.6558 11.1775 26.2649 11.3333 26.9166 11.3333C29.2541 11.3333 31.1666 9.42083 31.1666 7.08333C31.1666 4.74583 29.2541 2.83333 26.9166 2.83333C24.5791 2.83333 22.6666 4.74583 22.6666 7.08333C22.6666 7.735 22.8224 8.34416 23.0916 8.91083L8.91075 23.0917C8.34409 22.8225 7.73492 22.6667 7.08325 22.6667C4.74575 22.6667 2.83325 24.5792 2.83325 26.9167C2.83325 29.2542 4.74575 31.1667 7.08325 31.1667C9.42075 31.1667 11.3333 29.2542 11.3333 26.9167C11.3333 26.265 11.1774 25.6558 10.9083 25.0892L25.0891 10.9083Z" fill="#E01E5A"/>
</svg>
