<svg width="39" height="39" viewBox="0 0 39 39" fill="none" xmlns="http://www.w3.org/2000/svg">
<path fill-rule="evenodd" clip-rule="evenodd" d="M37.5208 19.5669C37.5208 18.2197 37.3999 16.9242 37.1754 15.6806H19.2812V23.03H29.5065C29.066 25.4049 27.7274 27.4172 25.7152 28.7644V33.5315H31.8555C35.4481 30.2239 37.5208 25.3531 37.5208 19.5669Z" fill="#4285F4"/>
<path fill-rule="evenodd" clip-rule="evenodd" d="M19.2809 38.1343C24.4108 38.1343 28.7116 36.433 31.8552 33.5313L25.7149 28.7641C24.0135 29.9041 21.8372 30.5777 19.2809 30.5777C14.3324 30.5777 10.1439 27.2355 8.64982 22.7447H2.30225V27.6673C5.42853 33.8767 11.8538 38.1343 19.2809 38.1343Z" fill="#34A853"/>
<path fill-rule="evenodd" clip-rule="evenodd" d="M8.65017 22.7453C8.27018 21.6053 8.05427 20.3876 8.05427 19.1353C8.05427 17.8831 8.27018 16.6654 8.65017 15.5254V10.6028H2.3026C1.01581 13.1678 0.281738 16.0695 0.281738 19.1353C0.281738 22.2012 1.01581 25.1029 2.3026 27.6679L8.65017 22.7453Z" fill="#FBBC05"/>
<path fill-rule="evenodd" clip-rule="evenodd" d="M19.2809 7.69225C22.0704 7.69225 24.5749 8.65086 26.5439 10.5335L31.9933 5.08413C28.703 2.0183 24.4022 0.135616 19.2809 0.135616C11.8538 0.135616 5.42853 4.39324 2.30225 10.6026L8.64982 15.5252C10.1439 11.0344 14.3324 7.69225 19.2809 7.69225Z" fill="#EA4335"/>
</svg>
