<svg width="39" height="39" viewBox="0 0 39 39" fill="none" xmlns="http://www.w3.org/2000/svg">
<rect x="0.781738" y="0.135643" width="38" height="38" rx="19" fill="#03A9F4"/>
<path d="M29.7927 12.9148C29.0557 13.2497 28.2614 13.4699 27.4383 13.5751C28.2805 13.0679 28.9313 12.264 29.2376 11.2973C28.4432 11.7759 27.5627 12.1108 26.6344 12.3022C25.8783 11.4792 24.816 11.0006 23.6101 11.0006C21.361 11.0006 19.5234 12.8382 19.5234 15.1064C19.5234 15.4318 19.5617 15.7477 19.6287 16.0443C16.2216 15.8721 13.1877 14.2355 11.1683 11.7567C10.8142 12.3597 10.6132 13.0679 10.6132 13.8144C10.6132 15.2404 11.331 16.5037 12.4412 17.2215C11.7617 17.2215 11.13 17.0301 10.5749 16.743C10.5749 16.743 10.5749 16.743 10.5749 16.7717C10.5749 18.7624 11.9914 20.4277 13.8672 20.8009C13.5227 20.8966 13.159 20.9445 12.7857 20.9445C12.5273 20.9445 12.2689 20.9158 12.0201 20.8679C12.5369 22.4853 14.0395 23.6912 15.8483 23.72C14.451 24.8301 12.6805 25.4809 10.7472 25.4809C10.4218 25.4809 10.0964 25.4618 9.771 25.4235C11.5894 26.5911 13.7524 27.2706 16.0684 27.2706C23.6101 27.2706 27.7541 21.0115 27.7541 15.585C27.7541 15.4031 27.7541 15.2308 27.7446 15.049C28.5485 14.4748 29.2376 13.7474 29.7927 12.9148Z" fill="white"/>
</svg>
